Shah Sans-W300-T30-R.4-C1.ufo
<glyph name="exclam" format="2">
  <advance width="237"/>
  <unicode hex="0021"/>
  <outline>
    <contour>
      <point x="119" y="68" type="qcurve" smooth="yes"/>
      <point x="156" y="68"/>
      <point x="156" y="30" type="qcurve" smooth="yes"/>
      <point x="156" y="-7"/>
      <point x="119" y="-7" type="qcurve" smooth="yes"/>
      <point x="81" y="-7"/>
      <point x="81" y="30" type="qcurve" smooth="yes"/>
      <point x="81" y="68"/>
    </contour>
    <contour>
      <point x="104" y="120" type="line"/>
      <point x="134" y="120" type="line"/>
      <point x="149" y="240" type="line"/>
      <point x="149" y="450" type="line"/>
      <point x="89" y="450" type="line"/>
      <point x="89" y="240" type="line"/>
    </contour>
  </outline>
</glyph>
<glyph name="quotedbl" format="2">
  <advance width="342"/>
  <unicode hex="0022"/>
  <outline>
    <contour>
      <point x="81" y="450" type="line"/>
      <point x="141" y="450" type="line"/>
      <point x="126" y="338" type="line"/>
      <point x="96" y="338" type="line"/>
    </contour>
    <contour>
      <point x="201" y="450" type="line"/>
      <point x="261" y="450" type="line"/>
      <point x="246" y="338" type="line"/>
      <point x="216" y="338" type="line"/>
    </contour>
  </outline>
</glyph>
<glyph name="quotesingle" format="2">
  <advance width="222"/>
  <unicode hex="0027"/>
  <outline>
    <contour>
      <point x="81" y="450" type="line"/>
      <point x="141" y="450" type="line"/>
      <point x="126" y="338" type="line"/>
      <point x="96" y="338" type="line"/>
    </contour>
  </outline>
</glyph>
<glyph name="parenleft" format="2">
  <advance width="194"/>
  <unicode hex="0028"/>
  <outline>
    <contour>
      <point x="86" y="-150" type="line" smooth="yes"/>
      <point x="36" y="-150"/>
      <point x="36" y="150" type="qcurve" smooth="yes"/>
      <point x="36" y="450"/>
      <point x="86" y="450" type="qcurve" smooth="yes"/>
      <point x="146" y="450" type="line"/>
      <point x="96" y="450"/>
      <point x="96" y="150" type="qcurve" smooth="yes"/>
      <point x="96" y="-150"/>
      <point x="146" y="-150" type="qcurve"/>
    </contour>
  </outline>
</glyph>
<glyph name="parenright" format="2">
  <advance width="194"/>
  <unicode hex="0029"/>
  <outline>
    <contour>
      <point x="48" y="-150" type="line"/>
      <point x="98" y="-150"/>
      <point x="98" y="150" type="qcurve" smooth="yes"/>
      <point x="98" y="450"/>
      <point x="48" y="450" type="qcurve"/>
      <point x="108" y="450" type="line" smooth="yes"/>
      <point x="158" y="450"/>
      <point x="158" y="150" type="qcurve" smooth="yes"/>
      <point x="158" y="-150"/>
      <point x="108" y="-150" type="qcurve" smooth="yes"/>
    </contour>
  </outline>
</glyph>
<glyph name="comma" format="2">
  <advance width="248"/>
  <unicode hex="002C"/>
  <outline>
    <contour>
      <point x="84" y="14" type="line"/>
      <point x="99" y="54"/>
      <point x="138" y="39" type="qcurve" smooth="yes"/>
      <point x="178" y="25"/>
      <point x="163" y="-14" type="qcurve"/>
      <point x="109" y="-84" type="line"/>
      <point x="81" y="-74" type="line"/>
    </contour>
  </outline>
</glyph>
<glyph name="hyphen" format="2">
  <advance width="437"/>
  <unicode hex="002D"/>
  <outline>
    <contour>
      <point x="81" y="135" type="line"/>
      <point x="381" y="135" type="line"/>
      <point x="381" y="165" type="line"/>
      <point x="81" y="165" type="line"/>
    </contour>
  </outline>
</glyph>
<glyph name="period" format="2">
  <advance width="237"/>
  <unicode hex="002E"/>
  <outline>
    <contour>
      <point x="119" y="68" type="qcurve" smooth="yes"/>
      <point x="156" y="68"/>
      <point x="156" y="30" type="qcurve" smooth="yes"/>
      <point x="156" y="-7"/>
      <point x="119" y="-7" type="qcurve" smooth="yes"/>
      <point x="81" y="-7"/>
      <point x="81" y="30" type="qcurve" smooth="yes"/>
      <point x="81" y="68"/>
    </contour>
  </outline>
</glyph>
<glyph name="colon" format="2">
  <advance width="237"/>
  <unicode hex="003A"/>
  <outline>
    <contour>
      <point x="119" y="68" type="qcurve" smooth="yes"/>
      <point x="156" y="68"/>
      <point x="156" y="30" type="qcurve" smooth="yes"/>
      <point x="156" y="-7"/>
      <point x="119" y="-7" type="qcurve" smooth="yes"/>
      <point x="81" y="-7"/>
      <point x="81" y="30" type="qcurve" smooth="yes"/>
      <point x="81" y="68"/>
    </contour>
    <contour>
      <point x="119" y="308" type="qcurve" smooth="yes"/>
      <point x="156" y="308"/>
      <point x="156" y="270" type="qcurve" smooth="yes"/>
      <point x="156" y="233"/>
      <point x="119" y="233" type="qcurve" smooth="yes"/>
      <point x="81" y="233"/>
      <point x="81" y="270" type="qcurve" smooth="yes"/>
      <point x="81" y="308"/>
    </contour>
  </outline>
</glyph>
<glyph name="bracketleft" format="2">
  <advance width="242"/>
  <unicode hex="005B"/>
  <outline>
    <contour>
      <point x="81" y="-150" type="line"/>
      <point x="81" y="450" type="line"/>
      <point x="161" y="450" type="line"/>
      <point x="161" y="420" type="line"/>
      <point x="141" y="420" type="line"/>
      <point x="141" y="-120" type="line"/>
      <point x="161" y="-120" type="line"/>
      <point x="161" y="-150" type="line"/>
    </contour>
  </outline>
</glyph>
<glyph name="bracketright" format="2">
  <advance width="242"/>
  <unicode hex="005D"/>
  <outline>
    <contour>
      <point x="81" y="-150" type="line"/>
      <point x="161" y="-150" type="line"/>
      <point x="161" y="450" type="line"/>
      <point x="81" y="450" type="line"/>
      <point x="81" y="420" type="line"/>
      <point x="101" y="420" type="line"/>
      <point x="101" y="-120" type="line"/>
      <point x="81" y="-120" type="line"/>
    </contour>
  </outline>
</glyph>
<glyph name="underscore" format="2">
  <advance width="462"/>
  <unicode hex="005F"/>
  <outline>
    <contour>
      <point x="81" y="-30" type="line"/>
      <point x="381" y="-30" type="line"/>
      <point x="381" y="0" type="line"/>
      <point x="81" y="0" type="line"/>
    </contour>
  </outline>
</glyph>
<glyph name="grave" format="2">
  <advance width="252"/>
  <unicode hex="0060"/>
  <outline>
    <contour>
      <point x="141" y="450" type="line"/>
      <point x="81" y="450" type="line"/>
      <point x="141" y="405" type="line"/>
      <point x="171" y="405" type="line"/>
    </contour>
  </outline>
</glyph>
<glyph name="a" format="2">
  <advance width="437"/>
  <unicode hex="0061"/>
  <outline>
    <contour>
      <point x="51" y="200" type="line"/>
      <point x="51" y="306"/>
      <point x="189" y="306" type="qcurve" smooth="yes"/>
      <point x="243" y="306" type="line" smooth="yes"/>
      <point x="381" y="306"/>
      <point x="381" y="200" type="qcurve" smooth="yes"/>
      <point x="381" y="0" type="line"/>
      <point x="321" y="0" type="line"/>
      <point x="321" y="200" type="line" smooth="yes"/>
      <point x="321" y="276"/>
      <point x="243" y="276" type="qcurve" smooth="yes"/>
      <point x="189" y="276" type="line" smooth="yes"/>
      <point x="111" y="276"/>
      <point x="111" y="200" type="qcurve"/>
    </contour>
    <contour>
      <point x="321" y="220" type="line" smooth="yes"/>
      <point x="321" y="170"/>
      <point x="271" y="170" type="qcurve" smooth="yes"/>
      <point x="189" y="170" type="line" smooth="yes"/>
      <point x="114" y="170"/>
      <point x="114" y="100" type="qcurve" smooth="yes"/>
      <point x="114" y="24"/>
      <point x="189" y="24" type="qcurve" smooth="yes"/>
      <point x="243" y="24" type="line" smooth="yes"/>
      <point x="321" y="24"/>
      <point x="321" y="80" type="qcurve"/>
      <point x="321" y="50" type="line" smooth="yes"/>
      <point x="321" y="-6"/>
      <point x="243" y="-6" type="qcurve" smooth="yes"/>
      <point x="189" y="-6" type="line" smooth="yes"/>
      <point x="48" y="-6"/>
      <point x="48" y="100" type="qcurve" smooth="yes"/>
      <point x="48" y="200"/>
      <point x="189" y="200" type="qcurve" smooth="yes"/>
      <point x="271" y="200" type="line" smooth="yes"/>
      <point x="321" y="200"/>
      <point x="321" y="250" type="qcurve"/>
    </contour>
  </outline>
</glyph>
<glyph name="b" format="2">
  <advance width="462"/>
  <unicode hex="0062"/>
  <outline>
    <contour>
      <point x="81" y="0" type="line"/>
      <point x="81" y="450" type="line"/>
      <point x="141" y="450" type="line"/>
      <point x="141" y="276" type="line"/>
      <point x="126" y="180" type="line"/>
      <point x="141" y="24" type="line"/>
      <point x="141" y="0" type="line"/>
    </contour>
    <contour>
      <point x="225" y="306" type="qcurve" smooth="yes"/>
      <point x="282" y="306" type="line" smooth="yes"/>
      <point x="426" y="306"/>
      <point x="426" y="180" type="qcurve" smooth="yes"/>
      <point x="426" y="120" type="line" smooth="yes"/>
      <point x="426" y="-6"/>
      <point x="282" y="-6" type="qcurve" smooth="yes"/>
      <point x="225" y="-6" type="line" smooth="yes"/>
      <point x="126" y="-6"/>
      <point x="126" y="120" type="qcurve" smooth="yes"/>
      <point x="126" y="180" type="line" smooth="yes"/>
      <point x="126" y="306"/>
    </contour>
    <contour>
      <point x="219" y="276" type="line" smooth="yes"/>
      <point x="135" y="276"/>
      <point x="135" y="180" type="qcurve" smooth="yes"/>
      <point x="135" y="120" type="line" smooth="yes"/>
      <point x="135" y="24"/>
      <point x="219" y="24" type="qcurve" smooth="yes"/>
      <point x="276" y="24" type="line" smooth="yes"/>
      <point x="360" y="24"/>
      <point x="360" y="120" type="qcurve" smooth="yes"/>
      <point x="360" y="180" type="line" smooth="yes"/>
      <point x="360" y="276"/>
      <point x="276" y="276" type="qcurve" smooth="yes"/>
    </contour>
  </outline>
</glyph>
<glyph name="c" format="2">
  <advance width="432"/>
  <unicode hex="0063"/>
  <outline>
    <contour>
      <point x="321" y="180" type="line"/>
      <point x="318" y="276"/>
      <point x="238" y="276" type="qcurve" smooth="yes"/>
      <point x="182" y="276" type="line" smooth="yes"/>
      <point x="102" y="276"/>
      <point x="102" y="180" type="qcurve" smooth="yes"/>
      <point x="102" y="120" type="line" smooth="yes"/>
      <point x="102" y="24"/>
      <point x="182" y="24" type="qcurve" smooth="yes"/>
      <point x="238" y="24" type="line" smooth="yes"/>
      <point x="318" y="24"/>
      <point x="318" y="120" type="qcurve"/>
      <point x="384" y="120" type="line"/>
      <point x="384" y="-6"/>
      <point x="238" y="-6" type="qcurve" smooth="yes"/>
      <point x="182" y="-6" type="line" smooth="yes"/>
      <point x="36" y="-6"/>
      <point x="36" y="120" type="qcurve" smooth="yes"/>
      <point x="36" y="180" type="line" smooth="yes"/>
      <point x="36" y="306"/>
      <point x="182" y="306" type="qcurve" smooth="yes"/>
      <point x="238" y="306" type="line" smooth="yes"/>
      <point x="384" y="306"/>
      <point x="384" y="180" type="qcurve"/>
    </contour>
  </outline>
</glyph>
<glyph name="e" format="2">
  <advance width="444"/>
  <unicode hex="0065"/>
  <outline>
    <contour>
      <point x="336" y="180" type="line"/>
      <point x="336" y="276"/>
      <point x="246" y="276" type="qcurve" smooth="yes"/>
      <point x="186" y="276" type="line" smooth="yes"/>
      <point x="96" y="276"/>
      <point x="96" y="180" type="qcurve" smooth="yes"/>
      <point x="96" y="120" type="line" smooth="yes"/>
      <point x="96" y="24"/>
      <point x="186" y="24" type="qcurve" smooth="yes"/>
      <point x="246" y="24" type="line" smooth="yes"/>
      <point x="336" y="24"/>
      <point x="336" y="120" type="qcurve"/>
      <point x="396" y="120" type="line"/>
      <point x="396" y="-6"/>
      <point x="246" y="-6" type="qcurve" smooth="yes"/>
      <point x="186" y="-6" type="line" smooth="yes"/>
      <point x="36" y="-6"/>
      <point x="36" y="120" type="qcurve" smooth="yes"/>
      <point x="36" y="180" type="line" smooth="yes"/>
      <point x="36" y="306"/>
      <point x="186" y="306" type="qcurve" smooth="yes"/>
      <point x="246" y="306" type="line" smooth="yes"/>
      <point x="396" y="306"/>
      <point x="396" y="180" type="qcurve" smooth="yes"/>
      <point x="396" y="151" type="line"/>
      <point x="96" y="151" type="line"/>
      <point x="96" y="181" type="line"/>
      <point x="336" y="181" type="line"/>
    </contour>
  </outline>
</glyph>
<glyph name="f" format="2">
  <advance width="210"/>
  <unicode hex="0066"/>
  <outline>
    <contour>
      <point x="231" y="390" type="line"/>
      <point x="231" y="426"/>
      <point x="201" y="426" type="qcurve" smooth="yes"/>
      <point x="171" y="426" type="line" smooth="yes"/>
      <point x="141" y="426"/>
      <point x="141" y="390" type="qcurve" smooth="yes"/>
      <point x="141" y="300" type="line"/>
      <point x="201" y="300" type="line"/>
      <point x="201" y="270" type="line"/>
      <point x="141" y="270" type="line"/>
      <point x="141" y="0" type="line"/>
      <point x="81" y="0" type="line"/>
      <point x="81" y="300" type="line"/>
      <point x="81" y="390" type="line" smooth="yes"/>
      <point x="81" y="456"/>
      <point x="171" y="456" type="qcurve" smooth="yes"/>
      <point x="201" y="456" type="line" smooth="yes"/>
      <point x="291" y="456"/>
      <point x="291" y="390" type="qcurve"/>
    </contour>
  </outline>
</glyph>
<glyph name="g" format="2">
  <advance width="422"/>
  <unicode hex="0067"/>
  <outline>
    <contour>
      <point x="159" y="306" type="qcurve" smooth="yes"/>
      <point x="213" y="306" type="line" smooth="yes"/>
      <point x="321" y="306"/>
      <point x="321" y="180" type="qcurve" smooth="yes"/>
      <point x="321" y="120" type="line" smooth="yes"/>
      <point x="321" y="-6"/>
      <point x="213" y="-6" type="qcurve" smooth="yes"/>
      <point x="159" y="-6" type="line" smooth="yes"/>
      <point x="36" y="-6"/>
      <point x="36" y="120" type="qcurve" smooth="yes"/>
      <point x="36" y="180" type="line" smooth="yes"/>
      <point x="36" y="306"/>
    </contour>
    <contour>
      <point x="180" y="276" type="line" smooth="yes"/>
      <point x="102" y="276"/>
      <point x="102" y="180" type="qcurve" smooth="yes"/>
      <point x="102" y="120" type="line" smooth="yes"/>
      <point x="102" y="24"/>
      <point x="180" y="24" type="qcurve" smooth="yes"/>
      <point x="234" y="24" type="line" smooth="yes"/>
      <point x="312" y="24"/>
      <point x="312" y="120" type="qcurve" smooth="yes"/>
      <point x="312" y="180" type="line" smooth="yes"/>
      <point x="312" y="276"/>
      <point x="234" y="276" type="qcurve" smooth="yes"/>
    </contour>
    <contour>
      <point x="306" y="0" type="line"/>
      <point x="306" y="24" type="line"/>
      <point x="321" y="120" type="line"/>
      <point x="306" y="276" type="line"/>
      <point x="306" y="300" type="line"/>
      <point x="366" y="300" type="line"/>
      <point x="366" y="0" type="line"/>
      <point x="366" y="-50" type="line" smooth="yes"/>
      <point x="366" y="-156"/>
      <point x="228" y="-156" type="qcurve" smooth="yes"/>
      <point x="174" y="-156" type="line" smooth="yes"/>
      <point x="36" y="-156"/>
      <point x="36" y="-50" type="qcurve"/>
      <point x="96" y="-50" type="line"/>
      <point x="96" y="-126"/>
      <point x="174" y="-126" type="qcurve" smooth="yes"/>
      <point x="228" y="-126" type="line" smooth="yes"/>
      <point x="306" y="-126"/>
      <point x="306" y="-50" type="qcurve" smooth="yes"/>
    </contour>
  </outline>
</glyph>
<glyph name="h" format="2">
  <advance width="452"/>
  <unicode hex="0068"/>
  <outline>
    <contour>
      <point x="81" y="0" type="line"/>
      <point x="81" y="450" type="line"/>
      <point x="141" y="450" type="line"/>
      <point x="141" y="0" type="line"/>
    </contour>
    <contour>
      <point x="126" y="200" type="line"/>
      <point x="126" y="306"/>
      <point x="213" y="306" type="qcurve" smooth="yes"/>
      <point x="264" y="306" type="line" smooth="yes"/>
      <point x="396" y="306"/>
      <point x="396" y="200" type="qcurve" smooth="yes"/>
      <point x="396" y="0" type="line"/>
      <point x="336" y="0" type="line"/>
      <point x="336" y="200" type="line" smooth="yes"/>
      <point x="336" y="276"/>
      <point x="264" y="276" type="qcurve" smooth="yes"/>
      <point x="213" y="276" type="line" smooth="yes"/>
      <point x="141" y="276"/>
      <point x="141" y="200" type="qcurve"/>
    </contour>
  </outline>
</glyph>
<glyph name="i" format="2">
  <advance width="228"/>
  <unicode hex="0069"/>
  <outline>
    <contour>
      <point x="84" y="0" type="line"/>
      <point x="84" y="300" type="line"/>
      <point x="144" y="300" type="line"/>
      <point x="144" y="0" type="line"/>
    </contour>
    <contour>
      <point x="114" y="393" type="qcurve" smooth="yes"/>
      <point x="147" y="393"/>
      <point x="147" y="360" type="qcurve" smooth="yes"/>
      <point x="147" y="327"/>
      <point x="114" y="327" type="qcurve" smooth="yes"/>
      <point x="81" y="327"/>
      <point x="81" y="360" type="qcurve" smooth="yes"/>
      <point x="81" y="393"/>
    </contour>
  </outline>
</glyph>
<glyph name="j" format="2">
  <advance width="201"/>
  <unicode hex="006A"/>
  <outline>
    <contour>
      <point x="145" y="-30" type="qcurve" smooth="yes"/>
      <point x="145" y="300" type="line"/>
      <point x="85" y="300" type="line"/>
      <point x="85" y="-30" type="line" smooth="yes"/>
      <point x="85" y="-120"/>
      <point x="55" y="-120" type="qcurve" smooth="yes"/>
      <point x="40" y="-120" type="line"/>
      <point x="40" y="-150" type="line"/>
      <point x="55" y="-150" type="line" smooth="yes"/>
      <point x="145" y="-150"/>
    </contour>
    <contour>
      <point x="115" y="390" type="qcurve" smooth="yes"/>
      <point x="145" y="390"/>
      <point x="145" y="360" type="qcurve" smooth="yes"/>
      <point x="145" y="330"/>
      <point x="115" y="330" type="qcurve" smooth="yes"/>
      <point x="85" y="330"/>
      <point x="85" y="360" type="qcurve" smooth="yes"/>
      <point x="85" y="390"/>
    </contour>
  </outline>
</glyph>
<glyph name="k" format="2">
  <advance width="369"/>
  <unicode hex="006B"/>
  <outline>
    <contour>
      <point x="81" y="0" type="line"/>
      <point x="81" y="450" type="line"/>
      <point x="141" y="450" type="line"/>
      <point x="141" y="0" type="line"/>
    </contour>
    <contour>
      <point x="319" y="300" type="line"/>
      <point x="366" y="300" type="line"/>
      <point x="141" y="75" type="line"/>
      <point x="141" y="123" type="line"/>
    </contour>
    <contour>
      <point x="151" y="127" type="line"/>
      <point x="182" y="148" type="line"/>
      <point x="397" y="0" type="line"/>
      <point x="335" y="0" type="line"/>
    </contour>
  </outline>
</glyph>
<glyph name="l" format="2">
  <advance width="222"/>
  <unicode hex="006C"/>
  <outline>
    <contour>
      <point x="81" y="0" type="line"/>
      <point x="81" y="450" type="line"/>
      <point x="141" y="450" type="line"/>
      <point x="141" y="0" type="line"/>
    </contour>
  </outline>
</glyph>
<glyph name="m" format="2">
  <advance width="677"/>
  <unicode hex="006D"/>
  <outline>
    <contour>
      <point x="81" y="0" type="line"/>
      <point x="81" y="300" type="line"/>
      <point x="141" y="300" type="line"/>
      <point x="141" y="0" type="line"/>
    </contour>
    <contour>
      <point x="126" y="200" type="line"/>
      <point x="126" y="306"/>
      <point x="207" y="306" type="qcurve" smooth="yes"/>
      <point x="255" y="306" type="line" smooth="yes"/>
      <point x="381" y="306"/>
      <point x="381" y="200" type="qcurve" smooth="yes"/>
      <point x="381" y="0" type="line"/>
      <point x="321" y="0" type="line"/>
      <point x="321" y="200" type="line" smooth="yes"/>
      <point x="321" y="276"/>
      <point x="255" y="276" type="qcurve" smooth="yes"/>
      <point x="207" y="276" type="line" smooth="yes"/>
      <point x="141" y="276"/>
      <point x="141" y="200" type="qcurve"/>
    </contour>
    <contour>
      <point x="366" y="200" type="line"/>
      <point x="366" y="306"/>
      <point x="447" y="306" type="qcurve" smooth="yes"/>
      <point x="495" y="306" type="line" smooth="yes"/>
      <point x="621" y="306"/>
      <point x="621" y="200" type="qcurve" smooth="yes"/>
      <point x="621" y="0" type="line"/>
      <point x="561" y="0" type="line"/>
      <point x="561" y="200" type="line" smooth="yes"/>
      <point x="561" y="276"/>
      <point x="495" y="276" type="qcurve" smooth="yes"/>
      <point x="447" y="276" type="line" smooth="yes"/>
      <point x="381" y="276"/>
      <point x="381" y="200" type="qcurve"/>
    </contour>
  </outline>
</glyph>
<glyph name="n" format="2">
  <advance width="467"/>
  <unicode hex="006E"/>
  <outline>
    <contour>
      <point x="81" y="0" type="line"/>
      <point x="81" y="300" type="line"/>
      <point x="141" y="300" type="line"/>
      <point x="141" y="0" type="line"/>
    </contour>
    <contour>
      <point x="126" y="200" type="line"/>
      <point x="126" y="306"/>
      <point x="219" y="306" type="qcurve" smooth="yes"/>
      <point x="273" y="306" type="line" smooth="yes"/>
      <point x="411" y="306"/>
      <point x="411" y="200" type="qcurve" smooth="yes"/>
      <point x="411" y="0" type="line"/>
      <point x="351" y="0" type="line"/>
      <point x="351" y="200" type="line" smooth="yes"/>
      <point x="351" y="276"/>
      <point x="273" y="276" type="qcurve" smooth="yes"/>
      <point x="219" y="276" type="line" smooth="yes"/>
      <point x="141" y="276"/>
      <point x="141" y="200" type="qcurve"/>
    </contour>
  </outline>
</glyph>
<glyph name="o" format="2">
  <advance width="426"/>
  <unicode hex="006F"/>
  <outline>
    <contour>
      <point x="184" y="306" type="qcurve" smooth="yes"/>
      <point x="242" y="306" type="line" smooth="yes"/>
      <point x="390" y="306"/>
      <point x="390" y="180" type="qcurve" smooth="yes"/>
      <point x="390" y="120" type="line" smooth="yes"/>
      <point x="390" y="-6"/>
      <point x="242" y="-6" type="qcurve" smooth="yes"/>
      <point x="184" y="-6" type="line" smooth="yes"/>
      <point x="36" y="-6"/>
      <point x="36" y="120" type="qcurve" smooth="yes"/>
      <point x="36" y="180" type="line" smooth="yes"/>
      <point x="36" y="306"/>
    </contour>
    <contour>
      <point x="184" y="276" type="line" smooth="yes"/>
      <point x="96" y="276"/>
      <point x="96" y="180" type="qcurve" smooth="yes"/>
      <point x="96" y="120" type="line" smooth="yes"/>
      <point x="96" y="24"/>
      <point x="184" y="24" type="qcurve" smooth="yes"/>
      <point x="242" y="24" type="line" smooth="yes"/>
      <point x="330" y="24"/>
      <point x="330" y="120" type="qcurve" smooth="yes"/>
      <point x="330" y="180" type="line" smooth="yes"/>
      <point x="330" y="276"/>
      <point x="242" y="276" type="qcurve" smooth="yes"/>
    </contour>
  </outline>
</glyph>
<glyph name="p" format="2">
  <advance width="468"/>
  <unicode hex="0070"/>
  <outline>
    <contour>
      <point x="225" y="306" type="qcurve" smooth="yes"/>
      <point x="282" y="306" type="line" smooth="yes"/>
      <point x="432" y="306"/>
      <point x="432" y="180" type="qcurve" smooth="yes"/>
      <point x="432" y="120" type="line" smooth="yes"/>
      <point x="432" y="-6"/>
      <point x="282" y="-6" type="qcurve" smooth="yes"/>
      <point x="225" y="-6" type="line" smooth="yes"/>
      <point x="81" y="-6"/>
      <point x="81" y="120" type="qcurve" smooth="yes"/>
      <point x="81" y="180" type="line" smooth="yes"/>
      <point x="81" y="306"/>
    </contour>
    <contour>
      <point x="225" y="276" type="line" smooth="yes"/>
      <point x="141" y="276"/>
      <point x="141" y="180" type="qcurve" smooth="yes"/>
      <point x="141" y="120" type="line" smooth="yes"/>
      <point x="141" y="24"/>
      <point x="225" y="24" type="qcurve" smooth="yes"/>
      <point x="282" y="24" type="line" smooth="yes"/>
      <point x="366" y="24"/>
      <point x="366" y="120" type="qcurve" smooth="yes"/>
      <point x="366" y="180" type="line" smooth="yes"/>
      <point x="366" y="276"/>
      <point x="282" y="276" type="qcurve" smooth="yes"/>
    </contour>
    <contour>
      <point x="81" y="-150" type="line"/>
      <point x="81" y="300" type="line"/>
      <point x="141" y="300" type="line"/>
      <point x="141" y="-150" type="line"/>
    </contour>
  </outline>
</glyph>
<glyph name="q" format="2">
  <advance width="468"/>
  <unicode hex="0071"/>
  <outline>
    <contour>
      <point x="186" y="306" type="qcurve" smooth="yes"/>
      <point x="243" y="306" type="line" smooth="yes"/>
      <point x="387" y="306"/>
      <point x="387" y="180" type="qcurve" smooth="yes"/>
      <point x="387" y="120" type="line" smooth="yes"/>
      <point x="387" y="-6"/>
      <point x="243" y="-6" type="qcurve" smooth="yes"/>
      <point x="186" y="-6" type="line" smooth="yes"/>
      <point x="36" y="-6"/>
      <point x="36" y="120" type="qcurve" smooth="yes"/>
      <point x="36" y="180" type="line" smooth="yes"/>
      <point x="36" y="306"/>
    </contour>
    <contour>
      <point x="186" y="276" type="line" smooth="yes"/>
      <point x="102" y="276"/>
      <point x="102" y="180" type="qcurve" smooth="yes"/>
      <point x="102" y="120" type="line" smooth="yes"/>
      <point x="102" y="24"/>
      <point x="186" y="24" type="qcurve" smooth="yes"/>
      <point x="243" y="24" type="line" smooth="yes"/>
      <point x="327" y="24"/>
      <point x="327" y="120" type="qcurve" smooth="yes"/>
      <point x="327" y="180" type="line" smooth="yes"/>
      <point x="327" y="276"/>
      <point x="243" y="276" type="qcurve" smooth="yes"/>
    </contour>
    <contour>
      <point x="327" y="-150" type="line"/>
      <point x="327" y="300" type="line"/>
      <point x="387" y="300" type="line"/>
      <point x="387" y="-150" type="line"/>
    </contour>
  </outline>
</glyph>
<glyph name="r" format="2">
  <advance width="319"/>
  <unicode hex="0072"/>
  <outline>
    <contour>
      <point x="81" y="0" type="line"/>
      <point x="81" y="300" type="line"/>
      <point x="141" y="300" type="line"/>
      <point x="141" y="0" type="line"/>
    </contour>
    <contour>
      <point x="126" y="200" type="line"/>
      <point x="126" y="306"/>
      <point x="231" y="306" type="qcurve" smooth="yes"/>
      <point x="291" y="306" type="line"/>
      <point x="291" y="276" type="line"/>
      <point x="231" y="276" type="line" smooth="yes"/>
      <point x="141" y="276"/>
      <point x="141" y="200" type="qcurve"/>
    </contour>
  </outline>
</glyph>
<glyph name="s" format="2">
  <advance width="420"/>
  <unicode hex="0073"/>
  <outline>
    <contour>
      <point x="378" y="221" type="line"/>
      <point x="378" y="306"/>
      <point x="240" y="306" type="qcurve" smooth="yes"/>
      <point x="186" y="306" type="line" smooth="yes"/>
      <point x="48" y="306"/>
      <point x="48" y="221" type="qcurve" smooth="yes"/>
      <point x="48" y="135"/>
      <point x="186" y="135" type="qcurve" smooth="yes"/>
      <point x="240" y="135" type="line" smooth="yes"/>
      <point x="324" y="135"/>
      <point x="324" y="80" type="qcurve" smooth="yes"/>
      <point x="324" y="24"/>
      <point x="240" y="24" type="qcurve" smooth="yes"/>
      <point x="186" y="24" type="line" smooth="yes"/>
      <point x="96" y="24"/>
      <point x="96" y="80" type="qcurve"/>
      <point x="36" y="80" type="line"/>
      <point x="36" y="-6"/>
      <point x="186" y="-6" type="qcurve" smooth="yes"/>
      <point x="240" y="-6" type="line" smooth="yes"/>
      <point x="384" y="-6"/>
      <point x="384" y="80" type="qcurve" smooth="yes"/>
      <point x="384" y="165"/>
      <point x="240" y="165" type="qcurve" smooth="yes"/>
      <point x="186" y="165" type="line" smooth="yes"/>
      <point x="108" y="165"/>
      <point x="108" y="221" type="qcurve" smooth="yes"/>
      <point x="108" y="276"/>
      <point x="186" y="276" type="qcurve" smooth="yes"/>
      <point x="240" y="276" type="line" smooth="yes"/>
      <point x="318" y="276"/>
      <point x="318" y="221" type="qcurve"/>
    </contour>
  </outline>
</glyph>
<glyph name="t" format="2">
  <advance width="215"/>
  <unicode hex="0074"/>
  <outline>
    <contour>
      <point x="70" y="60" type="qcurve" smooth="yes"/>
      <point x="70" y="351" type="line"/>
      <point x="130" y="351" type="line"/>
      <point x="130" y="60" type="line" smooth="yes"/>
      <point x="130" y="24"/>
      <point x="160" y="24" type="qcurve" smooth="yes"/>
      <point x="175" y="24" type="line"/>
      <point x="175" y="-6" type="line"/>
      <point x="160" y="-6" type="line" smooth="yes"/>
      <point x="70" y="-6"/>
    </contour>
    <contour>
      <point x="40" y="300" type="line"/>
      <point x="175" y="300" type="line"/>
      <point x="175" y="270" type="line"/>
      <point x="40" y="270" type="line"/>
    </contour>
  </outline>
</glyph>
<glyph name="v" format="2">
  <advance width="337"/>
  <unicode hex="0076"/>
  <outline>
    <contour>
      <point x="8" y="300" type="line"/>
      <point x="145" y="0" type="line"/>
      <point x="193" y="0" type="line"/>
      <point x="329" y="300" type="line"/>
      <point x="278" y="300" type="line"/>
      <point x="167" y="66" type="line"/>
      <point x="170" y="66" type="line"/>
      <point x="59" y="300" type="line"/>
    </contour>
  </outline>
</glyph>
<glyph name="w" format="2">
  <advance width="457"/>
  <unicode hex="0077"/>
  <outline>
    <contour>
      <point x="8" y="300" type="line"/>
      <point x="125" y="0" type="line"/>
      <point x="163" y="0" type="line"/>
      <point x="241" y="288" type="line"/>
      <point x="216" y="288" type="line"/>
      <point x="294" y="0" type="line"/>
      <point x="331" y="0" type="line"/>
      <point x="448" y="300" type="line"/>
      <point x="398" y="300" type="line"/>
      <point x="294" y="12" type="line"/>
      <point x="319" y="12" type="line"/>
      <point x="241" y="300" type="line"/>
      <point x="216" y="300" type="line"/>
      <point x="138" y="12" type="line"/>
      <point x="163" y="12" type="line"/>
      <point x="58" y="300" type="line"/>
    </contour>
  </outline>
</glyph>
<glyph name="x" format="2">
  <advance width="318"/>
  <unicode hex="0078"/>
  <outline>
    <contour>
      <point x="8" y="0" type="line"/>
      <point x="248" y="300" type="line"/>
      <point x="309" y="300" type="line"/>
      <point x="69" y="0" type="line"/>
    </contour>
    <contour>
      <point x="248" y="0" type="line"/>
      <point x="8" y="300" type="line"/>
      <point x="69" y="300" type="line"/>
      <point x="309" y="0" type="line"/>
    </contour>
  </outline>
</glyph>
<glyph name="y" format="2">
  <advance width="418"/>
  <unicode hex="0079"/>
  <outline>
    <contour>
      <point x="56" y="300" type="line"/>
      <point x="56" y="100" type="line" smooth="yes"/>
      <point x="56" y="-6"/>
      <point x="184" y="-6" type="qcurve" smooth="yes"/>
      <point x="234" y="-6" type="line" smooth="yes"/>
      <point x="317" y="-6"/>
      <point x="317" y="100" type="qcurve"/>
      <point x="302" y="100" type="line"/>
      <point x="302" y="24"/>
      <point x="234" y="24" type="qcurve" smooth="yes"/>
      <point x="184" y="24" type="line" smooth="yes"/>
      <point x="116" y="24"/>
      <point x="116" y="100" type="qcurve" smooth="yes"/>
      <point x="116" y="300" type="line"/>
    </contour>
    <contour>
      <point x="362" y="300" type="line"/>
      <point x="302" y="300" type="line"/>
      <point x="302" y="-50" type="line" smooth="yes"/>
      <point x="302" y="-126"/>
      <point x="234" y="-126" type="qcurve" smooth="yes"/>
      <point x="184" y="-126" type="line" smooth="yes"/>
      <point x="116" y="-126"/>
      <point x="116" y="-50" type="qcurve"/>
      <point x="56" y="-50" type="line"/>
      <point x="56" y="-156"/>
      <point x="184" y="-156" type="qcurve" smooth="yes"/>
      <point x="234" y="-156" type="line" smooth="yes"/>
      <point x="362" y="-156"/>
      <point x="362" y="-50" type="qcurve" smooth="yes"/>
    </contour>
  </outline>
</glyph>
<glyph name="z" format="2">
  <advance width="320"/>
  <unicode hex="007A"/>
  <outline>
    <contour>
      <point x="40" y="300" type="line"/>
      <point x="280" y="300" type="line"/>
      <point x="280" y="270" type="line"/>
      <point x="99" y="30" type="line"/>
      <point x="280" y="30" type="line"/>
      <point x="280" y="0" type="line"/>
      <point x="40" y="0" type="line"/>
      <point x="40" y="30" type="line"/>
      <point x="221" y="270" type="line"/>
      <point x="40" y="270" type="line"/>
    </contour>
  </outline>
</glyph>
<glyph name="a_dieresis" format="2">
  <advance width="437"/>
  <unicode hex="00E4"/>
  <outline>
    <contour>
      <point x="51" y="200" type="line"/>
      <point x="51" y="306"/>
      <point x="189" y="306" type="qcurve" smooth="yes"/>
      <point x="243" y="306" type="line" smooth="yes"/>
      <point x="381" y="306"/>
      <point x="381" y="200" type="qcurve" smooth="yes"/>
      <point x="381" y="0" type="line"/>
      <point x="321" y="0" type="line"/>
      <point x="321" y="200" type="line" smooth="yes"/>
      <point x="321" y="276"/>
      <point x="243" y="276" type="qcurve" smooth="yes"/>
      <point x="189" y="276" type="line" smooth="yes"/>
      <point x="111" y="276"/>
      <point x="111" y="200" type="qcurve"/>
    </contour>
    <contour>
      <point x="321" y="220" type="line" smooth="yes"/>
      <point x="321" y="170"/>
      <point x="271" y="170" type="qcurve" smooth="yes"/>
      <point x="189" y="170" type="line" smooth="yes"/>
      <point x="114" y="170"/>
      <point x="114" y="100" type="qcurve" smooth="yes"/>
      <point x="114" y="24"/>
      <point x="189" y="24" type="qcurve" smooth="yes"/>
      <point x="243" y="24" type="line" smooth="yes"/>
      <point x="321" y="24"/>
      <point x="321" y="80" type="qcurve"/>
      <point x="321" y="50" type="line" smooth="yes"/>
      <point x="321" y="-6"/>
      <point x="243" y="-6" type="qcurve" smooth="yes"/>
      <point x="189" y="-6" type="line" smooth="yes"/>
      <point x="48" y="-6"/>
      <point x="48" y="100" type="qcurve" smooth="yes"/>
      <point x="48" y="200"/>
      <point x="189" y="200" type="qcurve" smooth="yes"/>
      <point x="271" y="200" type="line" smooth="yes"/>
      <point x="321" y="200"/>
      <point x="321" y="250" type="qcurve"/>
    </contour>
    <contour>
      <point x="119" y="390" type="qcurve" smooth="yes"/>
      <point x="149" y="390"/>
      <point x="149" y="360" type="qcurve" smooth="yes"/>
      <point x="149" y="330"/>
      <point x="119" y="330" type="qcurve" smooth="yes"/>
      <point x="89" y="330"/>
      <point x="89" y="360" type="qcurve" smooth="yes"/>
      <point x="89" y="390"/>
    </contour>
    <contour>
      <point x="314" y="390" type="qcurve" smooth="yes"/>
      <point x="344" y="390"/>
      <point x="344" y="360" type="qcurve" smooth="yes"/>
      <point x="344" y="330"/>
      <point x="314" y="330" type="qcurve" smooth="yes"/>
      <point x="284" y="330"/>
      <point x="284" y="360" type="qcurve" smooth="yes"/>
      <point x="284" y="390"/>
    </contour>
  </outline>
</glyph>
<glyph name="c_cedilla" format="2">
  <advance width="432"/>
  <unicode hex="00E7"/>
  <outline>
    <contour>
      <point x="321" y="180" type="line"/>
      <point x="318" y="276"/>
      <point x="238" y="276" type="qcurve" smooth="yes"/>
      <point x="182" y="276" type="line" smooth="yes"/>
      <point x="102" y="276"/>
      <point x="102" y="180" type="qcurve" smooth="yes"/>
      <point x="102" y="120" type="line" smooth="yes"/>
      <point x="102" y="24"/>
      <point x="182" y="24" type="qcurve" smooth="yes"/>
      <point x="238" y="24" type="line" smooth="yes"/>
      <point x="318" y="24"/>
      <point x="318" y="120" type="qcurve"/>
      <point x="384" y="120" type="line"/>
      <point x="384" y="-6"/>
      <point x="238" y="-6" type="qcurve" smooth="yes"/>
      <point x="182" y="-6" type="line" smooth="yes"/>
      <point x="36" y="-6"/>
      <point x="36" y="120" type="qcurve" smooth="yes"/>
      <point x="36" y="180" type="line" smooth="yes"/>
      <point x="36" y="306"/>
      <point x="182" y="306" type="qcurve" smooth="yes"/>
      <point x="238" y="306" type="line" smooth="yes"/>
      <point x="384" y="306"/>
      <point x="384" y="180" type="qcurve"/>
    </contour>
    <contour>
      <point x="195" y="-6" type="line"/>
      <point x="216" y="-6" type="line"/>
      <point x="246" y="-36" type="line"/>
      <point x="210" y="-36" type="line" smooth="yes"/>
      <point x="182" y="-36"/>
      <point x="182" y="-43" type="qcurve" smooth="yes"/>
      <point x="182" y="-51"/>
      <point x="210" y="-51" type="qcurve" smooth="yes"/>
      <point x="246" y="-51" type="line"/>
      <point x="246" y="-66" type="line"/>
      <point x="210" y="-66" type="line" smooth="yes"/>
      <point x="152" y="-66"/>
      <point x="152" y="-43" type="qcurve" smooth="yes"/>
      <point x="152" y="-21"/>
      <point x="210" y="-21" type="qcurve"/>
    </contour>
  </outline>
</glyph>
<glyph name="o_dieresis" format="2">
  <advance width="426"/>
  <unicode hex="00F6"/>
  <outline>
    <contour>
      <point x="184" y="306" type="qcurve" smooth="yes"/>
      <point x="242" y="306" type="line" smooth="yes"/>
      <point x="390" y="306"/>
      <point x="390" y="180" type="qcurve" smooth="yes"/>
      <point x="390" y="120" type="line" smooth="yes"/>
      <point x="390" y="-6"/>
      <point x="242" y="-6" type="qcurve" smooth="yes"/>
      <point x="184" y="-6" type="line" smooth="yes"/>
      <point x="36" y="-6"/>
      <point x="36" y="120" type="qcurve" smooth="yes"/>
      <point x="36" y="180" type="line" smooth="yes"/>
      <point x="36" y="306"/>
    </contour>
    <contour>
      <point x="184" y="276" type="line" smooth="yes"/>
      <point x="96" y="276"/>
      <point x="96" y="180" type="qcurve" smooth="yes"/>
      <point x="96" y="120" type="line" smooth="yes"/>
      <point x="96" y="24"/>
      <point x="184" y="24" type="qcurve" smooth="yes"/>
      <point x="242" y="24" type="line" smooth="yes"/>
      <point x="330" y="24"/>
      <point x="330" y="120" type="qcurve" smooth="yes"/>
      <point x="330" y="180" type="line" smooth="yes"/>
      <point x="330" y="276"/>
      <point x="242" y="276" type="qcurve" smooth="yes"/>
    </contour>
    <contour>
      <point x="104" y="390" type="qcurve" smooth="yes"/>
      <point x="134" y="390"/>
      <point x="134" y="360" type="qcurve" smooth="yes"/>
      <point x="134" y="330"/>
      <point x="104" y="330" type="qcurve" smooth="yes"/>
      <point x="74" y="330"/>
      <point x="74" y="360" type="qcurve" smooth="yes"/>
      <point x="74" y="390"/>
    </contour>
    <contour>
      <point x="323" y="390" type="qcurve" smooth="yes"/>
      <point x="353" y="390"/>
      <point x="353" y="360" type="qcurve" smooth="yes"/>
      <point x="353" y="330"/>
      <point x="323" y="330" type="qcurve" smooth="yes"/>
      <point x="293" y="330"/>
      <point x="293" y="360" type="qcurve" smooth="yes"/>
      <point x="293" y="390"/>
    </contour>
  </outline>
</glyph>
<glyph name="u_dieresis" format="2">
  <advance width="443"/>
  <unicode hex="00FC"/>
  <outline>
    <contour>
      <point x="56" y="300" type="line"/>
      <point x="56" y="100" type="line" smooth="yes"/>
      <point x="56" y="-6"/>
      <point x="184" y="-6" type="qcurve" smooth="yes"/>
      <point x="234" y="-6" type="line" smooth="yes"/>
      <point x="317" y="-6"/>
      <point x="317" y="100" type="qcurve"/>
      <point x="302" y="100" type="line"/>
      <point x="302" y="24"/>
      <point x="234" y="24" type="qcurve" smooth="yes"/>
      <point x="184" y="24" type="line" smooth="yes"/>
      <point x="116" y="24"/>
      <point x="116" y="100" type="qcurve" smooth="yes"/>
      <point x="116" y="300" type="line"/>
    </contour>
    <contour>
      <point x="302" y="0" type="line"/>
      <point x="362" y="0" type="line"/>
      <point x="362" y="300" type="line"/>
      <point x="302" y="300" type="line"/>
    </contour>
    <contour>
      <point x="124" y="390" type="qcurve" smooth="yes"/>
      <point x="154" y="390"/>
      <point x="154" y="360" type="qcurve" smooth="yes"/>
      <point x="154" y="330"/>
      <point x="124" y="330" type="qcurve" smooth="yes"/>
      <point x="94" y="330"/>
      <point x="94" y="360" type="qcurve" smooth="yes"/>
      <point x="94" y="390"/>
    </contour>
    <contour>
      <point x="295" y="390" type="qcurve" smooth="yes"/>
      <point x="325" y="390"/>
      <point x="325" y="360" type="qcurve" smooth="yes"/>
      <point x="325" y="330"/>
      <point x="295" y="330" type="qcurve" smooth="yes"/>
      <point x="265" y="330"/>
      <point x="265" y="360" type="qcurve" smooth="yes"/>
      <point x="265" y="390"/>
    </contour>
  </outline>
</glyph>
<glyph name="g_breve" format="2">
  <advance width="422"/>
  <unicode hex="011F"/>
  <outline>
    <contour>
      <point x="174" y="306" type="qcurve" smooth="yes"/>
      <point x="228" y="306" type="line" smooth="yes"/>
      <point x="366" y="306"/>
      <point x="366" y="180" type="qcurve" smooth="yes"/>
      <point x="366" y="120" type="line" smooth="yes"/>
      <point x="366" y="-6"/>
      <point x="228" y="-6" type="qcurve" smooth="yes"/>
      <point x="174" y="-6" type="line" smooth="yes"/>
      <point x="36" y="-6"/>
      <point x="36" y="120" type="qcurve" smooth="yes"/>
      <point x="36" y="180" type="line" smooth="yes"/>
      <point x="36" y="306"/>
    </contour>
    <contour>
      <point x="174" y="276" type="line" smooth="yes"/>
      <point x="96" y="276"/>
      <point x="96" y="180" type="qcurve" smooth="yes"/>
      <point x="96" y="120" type="line" smooth="yes"/>
      <point x="96" y="24"/>
      <point x="174" y="24" type="qcurve" smooth="yes"/>
      <point x="228" y="24" type="line" smooth="yes"/>
      <point x="306" y="24"/>
      <point x="306" y="120" type="qcurve" smooth="yes"/>
      <point x="306" y="180" type="line" smooth="yes"/>
      <point x="306" y="276"/>
      <point x="228" y="276" type="qcurve" smooth="yes"/>
    </contour>
    <contour>
      <point x="306" y="0" type="line"/>
      <point x="306" y="300" type="line"/>
      <point x="366" y="300" type="line"/>
      <point x="366" y="0" type="line"/>
      <point x="366" y="-50" type="line" smooth="yes"/>
      <point x="366" y="-165"/>
      <point x="228" y="-165" type="qcurve" smooth="yes"/>
      <point x="174" y="-165" type="line" smooth="yes"/>
      <point x="36" y="-165"/>
      <point x="36" y="-50" type="qcurve"/>
      <point x="96" y="-50" type="line"/>
      <point x="96" y="-135"/>
      <point x="174" y="-135" type="qcurve" smooth="yes"/>
      <point x="228" y="-135" type="line" smooth="yes"/>
      <point x="306" y="-135"/>
      <point x="306" y="-50" type="qcurve" smooth="yes"/>
    </contour>
    <contour>
      <point x="89" y="375" type="line"/>
      <point x="89" y="330"/>
      <point x="174" y="330" type="qcurve" smooth="yes"/>
      <point x="228" y="330" type="line" smooth="yes"/>
      <point x="314" y="330"/>
      <point x="314" y="375" type="qcurve"/>
      <point x="291" y="375" type="line"/>
      <point x="291" y="353"/>
      <point x="228" y="353" type="qcurve" smooth="yes"/>
      <point x="174" y="353" type="line" smooth="yes"/>
      <point x="111" y="353"/>
      <point x="111" y="375" type="qcurve"/>
    </contour>
  </outline>
</glyph>
<glyph name="idotless" format="2">
  <advance width="222"/>
  <unicode hex="0131"/>
  <outline>
    <contour>
      <point x="81" y="0" type="line"/>
      <point x="81" y="300" type="line"/>
      <point x="141" y="300" type="line"/>
      <point x="141" y="0" type="line"/>
    </contour>
  </outline>
</glyph>
<glyph name="s_cedilla" format="2">
  <advance width="420"/>
  <unicode hex="015F"/>
  <outline>
    <contour>
      <point x="378" y="221" type="line"/>
      <point x="378" y="306"/>
      <point x="240" y="306" type="qcurve" smooth="yes"/>
      <point x="186" y="306" type="line" smooth="yes"/>
      <point x="48" y="306"/>
      <point x="48" y="221" type="qcurve" smooth="yes"/>
      <point x="48" y="135"/>
      <point x="186" y="135" type="qcurve" smooth="yes"/>
      <point x="240" y="135" type="line" smooth="yes"/>
      <point x="324" y="135"/>
      <point x="324" y="80" type="qcurve" smooth="yes"/>
      <point x="324" y="24"/>
      <point x="240" y="24" type="qcurve" smooth="yes"/>
      <point x="186" y="24" type="line" smooth="yes"/>
      <point x="96" y="24"/>
      <point x="96" y="80" type="qcurve"/>
      <point x="36" y="80" type="line"/>
      <point x="36" y="-6"/>
      <point x="186" y="-6" type="qcurve" smooth="yes"/>
      <point x="240" y="-6" type="line" smooth="yes"/>
      <point x="384" y="-6"/>
      <point x="384" y="80" type="qcurve" smooth="yes"/>
      <point x="384" y="165"/>
      <point x="240" y="165" type="qcurve" smooth="yes"/>
      <point x="186" y="165" type="line" smooth="yes"/>
      <point x="108" y="165"/>
      <point x="108" y="221" type="qcurve" smooth="yes"/>
      <point x="108" y="276"/>
      <point x="186" y="276" type="qcurve" smooth="yes"/>
      <point x="240" y="276" type="line" smooth="yes"/>
      <point x="318" y="276"/>
      <point x="318" y="221" type="qcurve"/>
    </contour>
    <contour>
      <point x="198" y="-6" type="line"/>
      <point x="219" y="-6" type="line"/>
      <point x="249" y="-36" type="line"/>
      <point x="213" y="-36" type="line" smooth="yes"/>
      <point x="186" y="-36"/>
      <point x="186" y="-43" type="qcurve" smooth="yes"/>
      <point x="186" y="-51"/>
      <point x="213" y="-51" type="qcurve" smooth="yes"/>
      <point x="249" y="-51" type="line"/>
      <point x="249" y="-66" type="line"/>
      <point x="213" y="-66" type="line" smooth="yes"/>
      <point x="156" y="-66"/>
      <point x="156" y="-43" type="qcurve" smooth="yes"/>
      <point x="156" y="-21"/>
      <point x="213" y="-21" type="qcurve"/>
    </contour>
  </outline>
</glyph>
<glyph name="bullet" format="2">
  <advance width="312"/>
  <unicode hex="2022"/>
  <outline>
    <contour>
      <point x="156" y="225" type="qcurve" smooth="yes"/>
      <point x="231" y="225"/>
      <point x="231" y="150" type="qcurve" smooth="yes"/>
      <point x="231" y="75"/>
      <point x="156" y="75" type="qcurve" smooth="yes"/>
      <point x="81" y="75"/>
      <point x="81" y="150" type="qcurve" smooth="yes"/>
      <point x="81" y="225"/>
    </contour>
  </outline>
</glyph>
<glyph name=".notdef" format="2">
  <advance width="462"/>
  <outline>
    <contour>
      <point x="81" y="0" type="line"/>
      <point x="81" y="450" type="line"/>
      <point x="381" y="450" type="line"/>
      <point x="381" y="0" type="line"/>
    </contour>
    <contour>
      <point x="141" y="30" type="line"/>
      <point x="321" y="30" type="line"/>
      <point x="321" y="420" type="line"/>
      <point x="141" y="420" type="line"/>
    </contour>
    <contour>
      <point x="106" y="30" type="line"/>
      <point x="286" y="420" type="line"/>
      <point x="356" y="420" type="line"/>
      <point x="176" y="30" type="line"/>
    </contour>
    <contour>
      <point x="286" y="30" type="line"/>
      <point x="106" y="420" type="line"/>
      <point x="176" y="420" type="line"/>
      <point x="356" y="30" type="line"/>
    </contour>
  </outline>
</glyph>
